<svg xmlns="http://www.w3.org/2000/svg" viewBox="0 0 320 320" role="img" aria-label="OSSEL Assistência">
  <defs><linearGradient id="g" x1="0" y1="0" x2="1" y2="1"><stop offset="0" stop-color="#ffffff"/><stop offset="1" stop-color="#bdeeff"/></linearGradient><linearGradient id="b" x1="0" y1="0" x2="1" y2="1"><stop offset="0" stop-color="#0f66c9"/><stop offset="1" stop-color="#0db2d7"/></linearGradient></defs>
  <rect width="320" height="320" rx="74" fill="url(#g)"/>
  <circle cx="160" cy="132" r="74" fill="url(#b)" opacity=".16"/>
  <path d="M86 176c0-42 31-76 74-76s74 34 74 76-31 76-74 76-74-34-74-76Zm49 0c0 17 10 31 25 31s25-14 25-31-10-31-25-31-25 14-25 31Z" fill="#061a33"/>
  <path d="M77 84h166v34H77z" fill="#0f66c9" rx="17"/>
</svg>
